<svg xmlns="http://www.w3.org/2000/svg" width="500" viewBox="0 0 375 375" height="500" version="1.0"><defs><clipPath id="a"><path d="M70.422 31.172H284.96V245.71H70.42Zm0 0"/></clipPath><clipPath id="b"><path d="M132.8 93.531h89.665v89.66H132.8Zm0 0"/></clipPath><clipPath id="c"><path d="M70.422 245.86H284.96v119.456H70.42Zm0 0"/></clipPath><clipPath id="d"><path d="M129.371 245.61h96.434v58.18H129.37Zm0 0"/></clipPath><clipPath id="e"><path d="M253 18h44v43h-44Zm0 0"/></clipPath><clipPath id="f"><path d="m245.39 43.793 25.133-33.969 33.97 25.133-25.134 33.969Zm0 0"/></clipPath><clipPath id="g"><path d="m245.39 43.793 25.133-33.969 33.97 25.133-25.134 33.969Zm0 0"/></clipPath></defs><g clip-path="url(#a)"><path fill="#8945ad" d="M284.96 138.441c0 1.754-.042 3.512-.128 5.262a102.946 102.946 0 0 1-.39 5.254 106.45 106.45 0 0 1-.645 5.223 100.596 100.596 0 0 1-.899 5.187 108.478 108.478 0 0 1-1.152 5.137 105.149 105.149 0 0 1-1.406 5.078 102.376 102.376 0 0 1-1.652 4.996 107.83 107.83 0 0 1-6.395 14.43 110.248 110.248 0 0 1-2.594 4.582 112.192 112.192 0 0 1-2.816 4.45 107.592 107.592 0 0 1-6.273 8.453 107.464 107.464 0 0 1-3.438 3.987c-1.18 1.301-2.39 2.57-3.629 3.813a107.927 107.927 0 0 1-3.816 3.629 107.45 107.45 0 0 1-3.985 3.441 110.584 110.584 0 0 1-4.152 3.239 106.551 106.551 0 0 1-4.305 3.03 105.174 105.174 0 0 1-9.027 5.411 107.984 107.984 0 0 1-9.516 4.504 106.867 106.867 0 0 1-9.914 3.543c-1.68.512-3.371.98-5.074 1.406a104.84 104.84 0 0 1-5.137 1.152 105.821 105.821 0 0 1-10.414 1.547 107.078 107.078 0 0 1-15.777.387 107.078 107.078 0 0 1-25.875-4.492 108.4 108.4 0 0 1-5-1.649 109.754 109.754 0 0 1-4.91-1.894 103.58 103.58 0 0 1-4.813-2.137c-1.59-.75-3.156-1.539-4.703-2.367a107.873 107.873 0 0 1-13.336-8.441A107.368 107.368 0 0 1 88.5 198.039a107.874 107.874 0 0 1-7.781-13.734 107.83 107.83 0 0 1-4.028-9.727c-.59-1.652-1.14-3.316-1.652-4.996a109.797 109.797 0 0 1-1.402-5.078c-.426-1.7-.813-3.414-1.153-5.137a106.45 106.45 0 0 1-1.934-15.664 107.38 107.38 0 0 1 1.032-21c.258-1.738.559-3.469.902-5.187a108.304 108.304 0 0 1 2.555-10.21 110.076 110.076 0 0 1 1.652-5.001 107.828 107.828 0 0 1 4.027-9.727 114.999 114.999 0 0 1 2.368-4.703 110.328 110.328 0 0 1 2.598-4.582c.902-1.504 1.84-2.988 2.816-4.445a107.496 107.496 0 0 1 6.27-8.457 107.567 107.567 0 0 1 19.02-18.11 107.874 107.874 0 0 1 13.336-8.441 107.893 107.893 0 0 1 9.516-4.504c1.62-.672 3.256-1.3 4.909-1.895 1.656-.59 3.32-1.14 5-1.648a105.867 105.867 0 0 1 10.21-2.559 106.64 106.64 0 0 1 20.93-2.062 107.5 107.5 0 0 1 15.739 1.16c1.738.258 3.465.559 5.187.902 1.723.34 3.434.727 5.137 1.153 1.703.425 3.394.894 5.074 1.406a106.866 106.866 0 0 1 9.914 3.543 107.894 107.894 0 0 1 9.516 4.504 105.175 105.175 0 0 1 9.027 5.41c1.461.977 2.895 1.984 4.305 3.031a110.585 110.585 0 0 1 4.152 3.239 111.273 111.273 0 0 1 3.985 3.44c1.3 1.18 2.574 2.388 3.816 3.63a111.492 111.492 0 0 1 3.629 3.812c1.18 1.301 2.324 2.633 3.437 3.989a107.591 107.591 0 0 1 6.274 8.457 109.28 109.28 0 0 1 2.816 4.445 110.248 110.248 0 0 1 2.594 4.582 107.83 107.83 0 0 1 6.395 14.43 101.146 101.146 0 0 1 1.652 5c.512 1.68.98 3.37 1.406 5.074.426 1.703.809 3.414 1.152 5.137.344 1.718.645 3.449.899 5.187.258 1.734.473 3.477.644 5.223.176 1.75.305 3.5.391 5.254.086 1.75.129 3.507.129 5.261Zm0 0"/></g><g clip-path="url(#b)"><path fill="#fff" d="M222.465 138.363a44.271 44.271 0 0 1-.863 8.746 44.484 44.484 0 0 1-2.551 8.41 45.567 45.567 0 0 1-1.88 3.977 47.233 47.233 0 0 1-2.26 3.774 44.979 44.979 0 0 1-8.836 9.746 44.452 44.452 0 0 1-3.536 2.62 45.071 45.071 0 0 1-7.75 4.145 44.627 44.627 0 0 1-4.14 1.48 44.58 44.58 0 0 1-8.622 1.716c-1.46.144-2.925.214-4.394.214a44.608 44.608 0 0 1-8.746-.859 44.214 44.214 0 0 1-4.266-1.07 44.3 44.3 0 0 1-8.121-3.364 43.802 43.802 0 0 1-3.773-2.261 44.782 44.782 0 0 1-9.75-8.836 45.367 45.367 0 0 1-2.622-3.531 47.232 47.232 0 0 1-2.261-3.774 44.701 44.701 0 0 1-3.36-8.121 43.372 43.372 0 0 1-1.07-4.266 44.26 44.26 0 0 1-.644-4.351 44.612 44.612 0 0 1-.22-4.395c0-1.468.075-2.933.22-4.394.14-1.461.359-2.914.644-4.352.285-1.441.64-2.863 1.07-4.27a44.627 44.627 0 0 1 3.36-8.117 45.885 45.885 0 0 1 2.261-3.773 44.98 44.98 0 0 1 8.836-9.75 45.432 45.432 0 0 1 3.536-2.621 43.801 43.801 0 0 1 3.773-2.262 43.955 43.955 0 0 1 3.977-1.879 44.325 44.325 0 0 1 8.41-2.55 44.272 44.272 0 0 1 8.746-.864 44.608 44.608 0 0 1 8.746.864c1.441.285 2.863.64 4.27 1.066 1.402.426 2.785.922 4.14 1.484a43.955 43.955 0 0 1 3.977 1.88 43.801 43.801 0 0 1 3.773 2.26 45.432 45.432 0 0 1 3.535 2.622 44.979 44.979 0 0 1 8.836 9.75 44.52 44.52 0 0 1 4.14 7.75 45.818 45.818 0 0 1 1.485 4.14 44.561 44.561 0 0 1 1.067 4.27c.289 1.438.503 2.89.648 4.352.14 1.46.215 2.926.215 4.394Zm0 0"/></g><g clip-path="url(#c)"><path fill="#8945ad" d="M284.96 258.059c0 1.757-.042 3.511-.128 5.265-.086 1.75-.215 3.5-.39 5.25a106.45 106.45 0 0 1-.645 5.223 100.596 100.596 0 0 1-.899 5.187 105 105 0 0 1-2.559 10.215 102.376 102.376 0 0 1-1.651 4.996 107.83 107.83 0 0 1-6.395 14.43 110.248 110.248 0 0 1-2.594 4.582 112.192 112.192 0 0 1-2.816 4.45 113.686 113.686 0 0 1-3.031 4.304 107.465 107.465 0 0 1-3.243 4.148 104.37 104.37 0 0 1-3.437 3.989c-1.18 1.3-2.39 2.57-3.629 3.812a107.927 107.927 0 0 1-3.816 3.63c-1.301 1.179-2.63 2.327-3.985 3.44a110.585 110.585 0 0 1-4.152 3.239 106.552 106.552 0 0 1-4.305 3.031 105.175 105.175 0 0 1-9.027 5.41 107.984 107.984 0 0 1-9.516 4.504 111.77 111.77 0 0 1-4.914 1.895c-1.652.59-3.32 1.14-5 1.652a108.304 108.304 0 0 1-10.21 2.555 105.823 105.823 0 0 1-10.415 1.546 107.08 107.08 0 0 1-15.777.387 107.08 107.08 0 0 1-20.801-3.086 108.304 108.304 0 0 1-5.074-1.402 113.385 113.385 0 0 1-5-1.652 109.752 109.752 0 0 1-4.91-1.895 103.578 103.578 0 0 1-4.813-2.137c-1.59-.75-3.156-1.539-4.703-2.367a107.874 107.874 0 0 1-13.336-8.441A107.37 107.37 0 0 1 88.5 317.656a107.874 107.874 0 0 1-7.781-13.734 107.828 107.828 0 0 1-4.028-9.727c-.59-1.652-1.14-3.316-1.652-4.996a111.011 111.011 0 0 1-1.402-5.074 104.992 104.992 0 0 1-1.153-5.14 106.45 106.45 0 0 1-1.934-15.66 107.54 107.54 0 0 1 1.032-21.005c.258-1.738.559-3.465.902-5.187a108.304 108.304 0 0 1 2.555-10.21c.512-1.68 1.063-3.349 1.652-5.001a107.83 107.83 0 0 1 4.027-9.727 114.998 114.998 0 0 1 2.368-4.703 110.328 110.328 0 0 1 2.598-4.582c.902-1.504 1.84-2.988 2.816-4.445a107.496 107.496 0 0 1 6.27-8.457 107.568 107.568 0 0 1 10.882-11.43 104.37 104.37 0 0 1 3.989-3.437 103.753 103.753 0 0 1 4.148-3.243 113.686 113.686 0 0 1 4.305-3.03 107.873 107.873 0 0 1 9.031-5.411 107.894 107.894 0 0 1 9.516-4.504c1.62-.668 3.257-1.3 4.91-1.894a108.4 108.4 0 0 1 5-1.649 105.867 105.867 0 0 1 10.21-2.559 106.638 106.638 0 0 1 20.93-2.062 107.5 107.5 0 0 1 15.739 1.16c1.738.258 3.465.559 5.187.903 1.723.34 3.434.726 5.137 1.152 1.703.426 3.394.894 5.074 1.406 1.68.508 3.348 1.059 5 1.649 1.652.593 3.29 1.226 4.914 1.894a107.895 107.895 0 0 1 9.516 4.504 105.174 105.174 0 0 1 9.027 5.41 106.755 106.755 0 0 1 12.441 9.71c1.301 1.18 2.575 2.388 3.817 3.63a111.494 111.494 0 0 1 3.629 3.813c1.18 1.3 2.324 2.632 3.437 3.988a107.592 107.592 0 0 1 6.274 8.457 109.28 109.28 0 0 1 2.816 4.445 110.248 110.248 0 0 1 2.594 4.582 107.83 107.83 0 0 1 6.395 14.43 102.52 102.52 0 0 1 1.652 5c.512 1.68.98 3.371 1.406 5.074.426 1.703.809 3.414 1.152 5.137.344 1.722.645 3.449.899 5.187.258 1.735.473 3.477.644 5.223.176 1.75.305 3.5.391 5.254a107.5 107.5 0 0 1 .129 5.262Zm0 0"/></g><g clip-path="url(#d)"><path fill="#fff" d="M225.805 255.57c0 1.578-.078 3.157-.23 4.727a48.435 48.435 0 0 1-1.845 9.27 49.98 49.98 0 0 1-1.593 4.456 49.68 49.68 0 0 1-2.024 4.278 48.476 48.476 0 0 1-2.433 4.058 48.54 48.54 0 0 1-5.996 7.305 48.307 48.307 0 0 1-3.508 3.18 47.07 47.07 0 0 1-3.801 2.816 47.853 47.853 0 0 1-4.059 2.434 47.51 47.51 0 0 1-4.277 2.023 47.17 47.17 0 0 1-4.453 1.594 48.615 48.615 0 0 1-9.27 1.844 47.805 47.805 0 0 1-9.453 0 48.255 48.255 0 0 1-9.27-1.844 47.639 47.639 0 0 1-4.456-1.594 48.54 48.54 0 0 1-4.278-2.023 48.49 48.49 0 0 1-7.86-5.25 49.139 49.139 0 0 1-3.507-3.18 49.024 49.024 0 0 1-3.176-3.504 49.548 49.548 0 0 1-2.82-3.8 48.435 48.435 0 0 1-6.047-12.794 47.495 47.495 0 0 1-1.844-9.27 47.746 47.746 0 0 1 0-9.452 47.495 47.495 0 0 1 1.844-9.27 47.638 47.638 0 0 1 1.594-4.457 48.435 48.435 0 0 1 4.453-8.336 49.548 49.548 0 0 1 2.82-3.8c1-1.22 2.063-2.387 3.176-3.504a49.139 49.139 0 0 1 3.508-3.18 48.49 48.49 0 0 1 7.86-5.25 48.54 48.54 0 0 1 4.277-2.024 48.348 48.348 0 0 1 18.453-3.672 48.615 48.615 0 0 1 13.996 2.078 47.17 47.17 0 0 1 4.453 1.594 47.51 47.51 0 0 1 4.277 2.024 47.853 47.853 0 0 1 4.059 2.433 47.07 47.07 0 0 1 3.8 2.817 48.307 48.307 0 0 1 9.505 10.484 48.476 48.476 0 0 1 2.433 4.059 49.68 49.68 0 0 1 2.024 4.277 49.98 49.98 0 0 1 1.593 4.457 48.647 48.647 0 0 1 1.844 9.27c.153 1.57.23 3.148.23 4.726Zm0 0"/></g><g clip-path="url(#e)"><g clip-path="url(#f)"><g clip-path="url(#g)"><path fill="#8945ad" d="M287.508 22.39c.558.41 1.094.848 1.605 1.313.512.465 1.004.953 1.469 1.465.465.512.902 1.047 1.316 1.602.414.554.797 1.128 1.153 1.722.36.594.683 1.203.98 1.828a20.72 20.72 0 0 1 1.398 3.898c.173.673.305 1.348.41 2.032a21.552 21.552 0 0 1 .208 4.137 21.633 21.633 0 0 1-.203 2.066c-.098.684-.235 1.36-.403 2.031a21.064 21.064 0 0 1-1.39 3.902 20.345 20.345 0 0 1-2.125 3.555 19.92 19.92 0 0 1-1.313 1.606 21.65 21.65 0 0 1-1.465 1.469c-.511.464-1.046.902-1.601 1.316-.555.414-1.129.797-1.723 1.152a21.02 21.02 0 0 1-3.742 1.777 20.72 20.72 0 0 1-1.984.602c-.668.172-1.348.305-2.032.41a21.429 21.429 0 0 1-4.136.207 21.43 21.43 0 0 1-6.082-1.203 21.537 21.537 0 0 1-3.746-1.766 21.386 21.386 0 0 1-3.332-2.465c-.512-.464-1-.952-1.47-1.464a21.328 21.328 0 0 1-4.246-7.066 21.9 21.9 0 0 1-.6-1.985 20.09 20.09 0 0 1-.407-2.031 20.372 20.372 0 0 1-.207-2.063 21.609 21.609 0 0 1-.004-2.074 21.213 21.213 0 0 1 1.996-8c.293-.625.621-1.234.977-1.828a19.76 19.76 0 0 1 1.148-1.726c.41-.559.848-1.09 1.313-1.606a21.65 21.65 0 0 1 1.464-1.469 21.551 21.551 0 0 1 1.602-1.316 20.345 20.345 0 0 1 1.723-1.152 21.02 21.02 0 0 1 3.742-1.777 20.72 20.72 0 0 1 1.984-.602 21.246 21.246 0 0 1 2.031-.41 21.633 21.633 0 0 1 4.137-.207c.692.035 1.379.101 2.067.203.683.097 1.363.234 2.03.402.673.168 1.337.367 1.99.598a21.61 21.61 0 0 1 3.746 1.766c.593.355 1.167.738 1.722 1.152Zm0 0"/></g></g></g></svg>